<mxfile host="app.diagrams.net" modified="2022-06-04T20:30:17.959Z" agent="5.0 (Windows NT 10.0; Win64; x64) AppleWebKit/537.36 (KHTML, like Gecko) Chrome/102.0.5005.61 Safari/537.36" etag="bCbIGc1J5cMGC8Fx-7GO" version="19.0.0" type="github">
  <diagram id="rc7JTz_sRh7tGSv_y6ly" name="Page-1">
    <mxGraphModel dx="723" dy="378" grid="1" gridSize="10" guides="1" tooltips="1" connect="1" arrows="1" fold="1" page="1" pageScale="1" pageWidth="827" pageHeight="1169" math="0" shadow="0">
      <root>
        <object label="" id="0">
          <mxCell />
        </object>
        <mxCell id="1" parent="0" />
        <mxCell id="3d9LdOU5SoOI7ffrQBRm-5" style="rounded=0;orthogonalLoop=1;jettySize=auto;html=1;exitX=0.5;exitY=0.5;exitDx=0;exitDy=0;exitPerimeter=0;entryX=0;entryY=0.5;entryDx=0;entryDy=0;strokeColor=none;" edge="1" parent="1" source="3d9LdOU5SoOI7ffrQBRm-1" target="3d9LdOU5SoOI7ffrQBRm-4">
          <mxGeometry relative="1" as="geometry" />
        </mxCell>
        <mxCell id="3d9LdOU5SoOI7ffrQBRm-7" style="orthogonalLoop=1;jettySize=auto;html=1;exitX=0.5;exitY=0.5;exitDx=0;exitDy=0;exitPerimeter=0;entryX=0;entryY=0.5;entryDx=0;entryDy=0;rounded=0;" edge="1" parent="1" source="3d9LdOU5SoOI7ffrQBRm-1" target="3d9LdOU5SoOI7ffrQBRm-6">
          <mxGeometry relative="1" as="geometry" />
        </mxCell>
        <mxCell id="3d9LdOU5SoOI7ffrQBRm-10" style="edgeStyle=none;rounded=0;orthogonalLoop=1;jettySize=auto;html=1;exitX=0.5;exitY=0.5;exitDx=0;exitDy=0;exitPerimeter=0;entryX=0;entryY=0.5;entryDx=0;entryDy=0;" edge="1" parent="1" source="3d9LdOU5SoOI7ffrQBRm-1" target="3d9LdOU5SoOI7ffrQBRm-9">
          <mxGeometry relative="1" as="geometry" />
        </mxCell>
        <mxCell id="3d9LdOU5SoOI7ffrQBRm-12" style="edgeStyle=none;rounded=0;orthogonalLoop=1;jettySize=auto;html=1;exitX=0.5;exitY=0.5;exitDx=0;exitDy=0;exitPerimeter=0;fontFamily=Times New Roman;fontSize=17;" edge="1" parent="1" source="3d9LdOU5SoOI7ffrQBRm-1">
          <mxGeometry relative="1" as="geometry">
            <mxPoint x="400" y="280" as="targetPoint" />
          </mxGeometry>
        </mxCell>
        <mxCell id="3d9LdOU5SoOI7ffrQBRm-14" style="edgeStyle=none;rounded=0;orthogonalLoop=1;jettySize=auto;html=1;exitX=0.5;exitY=0.5;exitDx=0;exitDy=0;exitPerimeter=0;entryX=0;entryY=0.5;entryDx=0;entryDy=0;fontFamily=Times New Roman;fontSize=17;" edge="1" parent="1" source="3d9LdOU5SoOI7ffrQBRm-1" target="3d9LdOU5SoOI7ffrQBRm-13">
          <mxGeometry relative="1" as="geometry" />
        </mxCell>
        <mxCell id="3d9LdOU5SoOI7ffrQBRm-1" value="Administrador" style="shape=umlActor;verticalLabelPosition=bottom;verticalAlign=top;html=1;outlineConnect=0;" vertex="1" parent="1">
          <mxGeometry x="190" y="320" width="30" height="60" as="geometry" />
        </mxCell>
        <mxCell id="3d9LdOU5SoOI7ffrQBRm-4" value="Crear Usuario&amp;nbsp;" style="ellipse;whiteSpace=wrap;html=1;" vertex="1" parent="1">
          <mxGeometry x="400" y="260" width="120" height="40" as="geometry" />
        </mxCell>
        <mxCell id="3d9LdOU5SoOI7ffrQBRm-6" value="Restablecer contraseña de usuarios" style="ellipse;whiteSpace=wrap;html=1;" vertex="1" parent="1">
          <mxGeometry x="400" y="400" width="140" height="50" as="geometry" />
        </mxCell>
        <mxCell id="3d9LdOU5SoOI7ffrQBRm-8" value="&lt;font face=&quot;Times New Roman&quot; style=&quot;font-size: 17px;&quot;&gt;Caso de Uso para el modulo de usuarios&lt;/font&gt;" style="text;html=1;resizable=0;autosize=1;align=center;verticalAlign=middle;points=[];fillColor=none;strokeColor=none;rounded=0;" vertex="1" parent="1">
          <mxGeometry x="200" y="190" width="290" height="20" as="geometry" />
        </mxCell>
        <mxCell id="3d9LdOU5SoOI7ffrQBRm-9" value="Asignación de roles" style="ellipse;whiteSpace=wrap;html=1;" vertex="1" parent="1">
          <mxGeometry x="400" y="330" width="120" height="40" as="geometry" />
        </mxCell>
        <mxCell id="3d9LdOU5SoOI7ffrQBRm-13" value="Eliminación de usuario" style="ellipse;whiteSpace=wrap;html=1;" vertex="1" parent="1">
          <mxGeometry x="400" y="480" width="140" height="50" as="geometry" />
        </mxCell>
      </root>
    </mxGraphModel>
  </diagram>
</mxfile>
